<?xml version="1.0" encoding="UTF-8"?>
<svg id="Layer_1" data-name="Layer 1" xmlns="http://www.w3.org/2000/svg" xmlns:xlink="http://www.w3.org/1999/xlink" viewBox="0 0 1637 1259">
  <defs>
    <style>
      .cls-1, .cls-2, .cls-3, .cls-4, .cls-5, .cls-6, .cls-7, .cls-8, .cls-9, .cls-10, .cls-11, .cls-12, .cls-13, .cls-14, .cls-15, .cls-16, .cls-17, .cls-18, .cls-19, .cls-20, .cls-21, .cls-22, .cls-23, .cls-24, .cls-25 {
        stroke: #000;
      }

      .cls-1, .cls-2, .cls-4, .cls-5, .cls-6, .cls-7, .cls-8, .cls-9, .cls-10, .cls-11, .cls-12, .cls-13, .cls-14, .cls-15, .cls-16, .cls-17, .cls-18, .cls-19, .cls-20, .cls-21, .cls-22, .cls-23, .cls-24, .cls-26, .cls-27, .cls-28, .cls-29, .cls-25 {
        stroke-miterlimit: 10;
      }

      .cls-30 {
        fill: #f7c47f;
      }

      .cls-31 {
        fill: #f7931e;
      }

      .cls-32, .cls-11 {
        fill: #fbb03b;
      }

      .cls-2 {
        opacity: .1;
      }

      .cls-2, .cls-24 {
        fill: #754c24;
      }

      .cls-3 {
        stroke-linecap: round;
        stroke-linejoin: round;
      }

      .cls-3, .cls-26 {
        stroke-width: 2px;
      }

      .cls-3, .cls-26, .cls-27, .cls-28 {
        fill: none;
      }

      .cls-4 {
        fill: #00a99d;
      }

      .cls-5 {
        fill: #006837;
      }

      .cls-6 {
        fill: #009245;
      }

      .cls-7 {
        fill: #fff;
      }

      .cls-8 {
        fill: #e8c5a3;
      }

      .cls-9 {
        fill: #e6e6e6;
      }

      .cls-10 {
        fill: red;
      }

      .cls-12 {
        fill: #c1272d;
      }

      .cls-13 {
        fill: #b2a686;
      }

      .cls-14 {
        fill: #bab47b;
      }

      .cls-15 {
        fill: #333;
      }

      .cls-16 {
        fill: #91232b;
      }

      .cls-17 {
        fill: #b3b3b3;
      }

      .cls-18 {
        fill: #3859a3;
      }

      .cls-19 {
        fill: gray;
      }

      .cls-20 {
        fill: #42210b;
      }

      .cls-21 {
        fill: #c69c6d;
      }

      .cls-22 {
        fill: #2e3192;
      }

      .cls-23 {
        fill: #4d4d4d;
      }

      .cls-26 {
        stroke: #b3b3b3;
      }

      .cls-27 {
        stroke: #f2f2f2;
      }

      .cls-27, .cls-28 {
        stroke-width: 8px;
      }

      .cls-28 {
        stroke: gray;
      }

      .cls-29 {
        fill: url(#radial-gradient);
        stroke: #f15a24;
        stroke-width: 5px;
      }

      .cls-25 {
        fill: url(#linear-gradient);
      }
    </style>
    <radialGradient id="radial-gradient" cx="818.5" cy="554.5" fx="1215.22" fy="921.29" r="761.14" gradientTransform="translate(0 134.24) scale(1 .89)" gradientUnits="userSpaceOnUse">
      <stop offset="0" stop-color="#fff"/>
      <stop offset=".15" stop-color="#ffd0b6"/>
      <stop offset=".29" stop-color="#ffa776"/>
      <stop offset=".42" stop-color="#ff8745"/>
      <stop offset=".53" stop-color="#ff7121"/>
      <stop offset=".62" stop-color="#ff630b"/>
      <stop offset=".68" stop-color="#ff5e04"/>
    </radialGradient>
    <linearGradient id="linear-gradient" x1="330.5" y1="405.09" x2="960.53" y2="405.09" gradientTransform="matrix(1, 0, 0, 1, 0, 0)" gradientUnits="userSpaceOnUse">
      <stop offset="0" stop-color="#fff"/>
      <stop offset=".07" stop-color="#f3f3f3"/>
      <stop offset=".33" stop-color="#d0d0d0"/>
      <stop offset=".55" stop-color="#bababa"/>
      <stop offset=".68" stop-color="#b3b3b3"/>
    </linearGradient>
  </defs>
  <rect class="cls-29" x="2.5" y="2.5" width="1632" height="1254"/>
  <path class="cls-27" d="M701,1000c-33.67-103-67.33-206-101-309"/>
  <path class="cls-28" d="M605.03,996.9c-33.67-103-67.33-206-101-309"/>
  <ellipse class="cls-2" cx="797.5" cy="1032" rx="33" ry="9.5"/>
  <ellipse class="cls-2" cx="698" cy="1028" rx="46.5" ry="11.5"/>
  <path class="cls-21" d="M1195.2,868.68c3.12-2.56,2.08-2.94,11.99-13.46,8.2-8.7,11.02-10.67,14.69-11.06,4.97-.53,11.26,1.89,12.31,5.77,1.25,4.58-5.62,8.02-13.54,17.28-13.59,15.88-8.95,23.91-19.6,31.58-6.63,4.77-14.12,5.18-29.12,6-13.65,.74-29.33,1.6-31.69-4.46-2.31-5.92,8.28-18.01,20.46-23.37,14.8-6.52,23.85,.45,34.49-8.27Z"/>
  <path class="cls-14" d="M1281.52,822.27c-13.07,7.53-19.67,15.68-23.29,21.97-2.5,4.34-3.53,7.68-7.75,12.04-5.84,6.01-10.23,6.19-15.82,11.91-4.5,4.61-6.42,9.38-7.89,13.03-5.56,13.78-1.57,23.03-1.47,46.25,.02,5.04-.13,12.67-1.09,22.06-5.48-6.49-10.96-12.99-16.44-19.48,2.49-5.96,5.93-15.79,7.02-28.3,1.63-18.7-3.62-24.78,.49-39.32,2.66-9.4,5.67-9.78,13.81-26.33,5.43-11.05,8.83-20.54,10.84-26.75,7.86,3.64,17.19,7.21,27.88,9.99,4.79,1.24,9.38,2.2,13.72,2.94Z"/>
  <g>
    <path class="cls-11" d="M397.5,357.5h-45l-25,42,28,45,44,1,25-46-27-42Zm-21.5,60c-9.11,0-16.5-7.39-16.5-16.5s7.39-16.5,16.5-16.5,16.5,7.39,16.5,16.5-7.39,16.5-16.5,16.5Z"/>
    <path class="cls-25" d="M330.5,362.5c17.23-29.04,48.22-46.75,81-46,42.01,.96,66.72,31.76,70,36,124.33,.33,248.67,.67,373,1,9.78,2.14,87.07,19.48,102,41,1.27,1.83,4.39,6.32,4,12-.76,11.09-14.35,18.69-23,23-48.92,24.36-82,26-82,26-48.67,2.42-187.12,3.24-374-3-2.22,3.59-24.32,38.07-66,41-33.44,2.35-65.88-16.57-82-48,21.67-.67,43.33-1.33,65-2,8-12.67,16-25.33,24-38-7.67-12.67-15.33-25.33-23-38-23-1.67-46-3.33-69-5Z"/>
    <path class="cls-17" d="M289.91,248.5h-45l-25,42,28,45,44,1,25-46-27-42Zm-21.5,60c-9.11,0-16.5-7.39-16.5-16.5s7.39-16.5,16.5-16.5,16.5,7.39,16.5,16.5-7.39,16.5-16.5,16.5Z"/>
    <path class="cls-9" d="M213.91,294.5h-45l-25,42,28,45,44,1,25-46-27-42Zm-21.5,60c-9.11,0-16.5-7.39-16.5-16.5s7.39-16.5,16.5-16.5,16.5,7.39,16.5,16.5-7.39,16.5-16.5,16.5Z"/>
    <path class="cls-11" d="M220.91,387.5h-45l-25,42,28,45,44,1,25-46-27-42Zm-21.5,60c-9.11,0-16.5-7.39-16.5-16.5s7.39-16.5,16.5-16.5,16.5,7.39,16.5,16.5-7.39,16.5-16.5,16.5Z"/>
    <path class="cls-18" d="M402.91,135.5h-45l-25,42,28,45,44,1,25-46-27-42Zm-21.5,60c-9.11,0-16.5-7.39-16.5-16.5s7.39-16.5,16.5-16.5,16.5,7.39,16.5,16.5-7.39,16.5-16.5,16.5Z"/>
  </g>
  <path class="cls-8" d="M881.58,359.8c1.25-1.41,11.04-12.13,25.2-10.91,10.05,.87,18.59,7.45,22.79,15.06,7.12,12.91-.65,24.43-6.68,62.77-1.52,9.67-2.39,17.65-2.89,22.84-11.84,0-23.67,0-35.51,.01,5.27-28.86,10.55-57.71,15.82-86.57l-18.73-3.2Z"/>
  <path class="cls-22" d="M891.75,442.7c-9.94,15.99-18.54,19.79-24.75,20.12-6.25,.32-9.67-2.9-19.88-2.39-2.83,.14-9.61,.55-16.95,4.2-6.58,3.27-18.57,11.61-17.68,20.31,.41,4.01,3.11,3.72,9.8,13.85,5.04,7.63,5.15,10.29,8.17,11.54,2.95,1.23,8.06,.87,17.46-7.16l17.74,3.03c4.31,4.9,10.08,11.16,17.18,18.16,13.64,13.42,19.72,17.21,22.9,26.24,2.65,7.51,2.01,15.03,.4,21.37,1.48,1.09,25.4,18.31,34.64,11,2.01-1.59,3.42-7.15,6.16-18.22,2.38-9.62,3.56-14.49,3.03-17.74-.4-2.49-2.32-11.14-15.04-18.81,4.51-4.64,9.03-9.28,13.54-13.92-18.91-23.86-37.83-47.73-56.74-71.59Z"/>
  <path class="cls-15" d="M990.55,404.82c-10.62,10.7-21.24,21.39-31.87,32.09-1.75-1.65-3.49-3.3-5.24-4.95,1.1-2.47,4.68-10.83,2.19-12.81-1.97-1.57-7.33,1.23-13.99,4.71-5.21,2.72-5.84,3.69-7.74,3.75-3.18,.1-7.8-2.37-13.75-14.53l36.15-33.38,34.25,25.13Z"/>
  <path class="cls-8" d="M944.41,508.52c.53,.49,3.69,3.32,7.86,7.43,8.23,8.12,10.24,11.19,13.75,14.53,9.1,8.64,20.08,11.18,26.25,12.61,6.49,1.5,18.09,4.18,29.6-1.02,3.33-1.51,7.94-3.67,9.57-8.51,1.41-4.16,.39-9.62-2.91-12.67-4.59-4.25-9.97-.43-23.01-1.91-4.87-.55-12.95-1.46-20.19-6.5-2.93-2.03-9.38-7.29-13.07-18.47,33.65-1.86,59.59-28.59,60.75-58.6,1.32-34.12-29.65-65.61-68.28-63.42-6.56,2.37-38.5,14.67-49.35,45.33-14.97,42.32,22.44,85.17,29.04,91.2Z"/>
  <path class="cls-15" d="M795.88,487.17c1.66-1.72,4.31-4.04,8.08-5.72,1.29-.58,15.01-6.41,25.96,2.41,7.15,5.75,10.26,15.44,7.95,24.69-3.74,4.09-7.49,8.19-11.23,12.28-10.25-11.22-20.51-22.45-30.76-33.67Z"/>
  <path class="cls-15" d="M942.24,596.97c.82-2.19,1.75-5.51,1.64-9.56-.04-1.38-.67-16-13.09-22.02-8.1-3.93-17.97-2.63-25.18,3.29-2.04,5.04-4.08,10.07-6.11,15.11,14.25,4.39,28.49,8.79,42.74,13.18Z"/>
  <path class="cls-11" d="M881.87,447.1c9.63-8.84,19.26-17.67,28.88-26.51,21.93,24.04,43.85,48.08,65.78,72.12l-3.46,2.45c-.63-1.36-2.57-5.09-6.87-7.26-3.87-1.96-9.83-2.75-14.31,.6-4.65,3.48-4.9,9.32-4.98,11.32-.33,7.71,4.57,13.01,5.69,14.16-1.65,1.75-3.3,3.49-4.95,5.24-21.93-24.04-43.85-48.08-65.78-72.12Z"/>
  <path class="cls-22" d="M1082.07,925.17c6.13,17.8,3.66,26.87-.01,31.89-3.69,5.05-8.35,5.67-14.4,13.92-1.67,2.29-5.64,7.8-7.44,15.8-1.62,7.17-2.71,21.74,4.6,26.53,3.37,2.21,4.85-.07,16.93,1.14,9.11,.91,11.23,2.49,14.11,.95,2.81-1.51,5.76-5.7,5.46-18.06,4.52-3.95,9.03-7.9,13.55-11.85,2.96-1.46,13.96-6.42,24.93-1.87,1.48,.61,6.55,2.89,13.04,11.63,4.19,5.64,11.06,16.79,13.36,34.2,12.58-5.63,25.15-11.27,37.73-16.9,1.56-7.17,2.61-17.78-.91-29.41-2.35-7.78-5.91-13.23-8.66-17.38-6.43-9.7-13.64-16.19-18.7-20.12-.75-6.43-1.5-12.86-2.25-19.29-30.45-.39-60.9-.78-91.34-1.16Z"/>
  <path class="cls-15" d="M1115.04,824.62c1.59,14.99,3.19,29.98,4.78,44.97-2.38,.31-4.77,.63-7.15,.94-1.22-2.41-5.45-10.47-8.56-9.79-2.46,.54-3.67,6.46-5.18,13.83-1.18,5.76-.82,6.85-1.98,8.37-1.93,2.53-6.76,4.55-19.94,1.5l-3.09-49.11,41.11-10.71Z"/>
  <path class="cls-21" d="M1166.36,925.86c.72-.11,4.91-.77,10.72-1.41,11.5-1.26,15.15-.88,19.94-1.5,12.44-1.61,21.34-8.52,26.34-12.41,5.26-4.08,14.66-11.39,17.88-23.61,.93-3.54,2.16-8.48-.56-12.79-2.34-3.72-7.22-6.38-11.66-5.74-6.19,.88-6.63,7.46-16,16.64-3.5,3.43-9.3,9.12-17.78,11.56-3.42,.99-11.57,2.68-22.58-1.51,19.79-27.27,15.42-64.26-7.12-84.1-25.63-22.56-69.61-18.4-92.29,12.95-2.3,6.58-12.92,39.13,4.02,66.89,23.38,38.32,80.23,36.34,89.07,35.03Z"/>
  <path class="cls-15" d="M1056.07,1027.61c-.29-2.38-.41-5.89,.66-9.88,.37-1.36,4.5-15.69,18.26-18.62,8.97-1.91,18.45,1.79,24.17,9.42,.81,5.49,1.63,10.98,2.44,16.46-15.18,.87-30.35,1.74-45.53,2.62Z"/>
  <path class="cls-15" d="M1210.33,1022.04c-.74-2.07-2.13-5.07-4.86-8.18-.93-1.06-10.97-12.17-25.24-11.38-9.31,.51-16.68,5.88-18.83,13.67,1.58,4.82,3.16,9.64,4.74,14.47,14.73-2.86,29.46-5.72,44.18-8.58Z"/>
  <path class="cls-11" d="M1079.25,935.61c-.78-13.04-1.56-26.09-2.34-39.13,32.49-1.84,64.97-3.68,97.46-5.51l-.28,4.23c-1.45-.37-5.57-1.21-9.97,.75-3.96,1.77-8.34,5.89-8.56,11.47-.24,5.8,4.14,9.68,5.64,11.01,5.77,5.12,12.98,4.66,14.58,4.52,.31,2.38,.63,4.77,.94,7.15-32.49,1.84-64.97,3.68-97.46,5.51Z"/>
  <path class="cls-3" d="M979.5,429.5c4.33,4.67,8.67,9.33,13,14-4-1.33-8-2.67-12-4"/>
  <path class="cls-1" d="M988.59,405.35c-10.73,8.67-21.47,17.35-32.2,26.02-1.54-2.1-3.08-4.2-4.62-6.3,.18-.07,3.7-1.46,4.36-5.1,.55-3.06-1.26-5.86-3.41-7.03-.47-.26-1.38-.67-2.91-.72-4.29-.15-6.82,2.73-11.63,5.36-1.81,.99-4.47,2.23-8,3.17-9.68-6.79-10.56-13.17-10.7-15.02-.91-12.01,15.12-26.75,41.65-30.89,9.16,10.17,18.31,20.34,27.47,30.5Z"/>
  <path class="cls-3" d="M1020.97,460.24c-5.85-2.51-11.7-5.02-17.56-7.54,2.6,3.32,5.2,6.64,7.8,9.96"/>
  <path class="cls-11" d="M1033.72,460.9c-2.18-3.08-4.36-6.16-6.54-9.23,2.83-3.26,6.73-8.45,9.77-15.58,2.1-4.94,9-21.88,1.98-41.26-.52-1.45-8.7-22.94-31.1-31.7-21.23-8.3-46.78-1.85-64.68,16.33,28.98,28.29,57.96,56.58,86.93,84.87,1.21-1.15,2.42-2.29,3.63-3.44Z"/>
  <path class="cls-24" d="M1165.29,830.13c-.36,.67-1.82,3.42-4.66,4.39-6.67,2.28-12.05-8.28-19.25-6.75-4.46,.95-8.26,6.25-8.61,10.91-.51,6.84,6.58,9.92,5.69,16.96-.42,3.3-2.34,5.53-4.09,7.5-7.65,8.63-19.43,14.34-37.02,19.02-13.71,3.65-20.58,5.42-24.74,3.58-13.98-6.18-15.15-31.36-14.09-43.39,.71-7.99,4.27-31.19,24.66-46.01,17.27-12.55,35.95-11.34,45.94-10.7,11.97,.77,19.6,4.08,29.15,8.15,9.36,3.99,12.38,6.78,12.75,9.87,.52,4.35-4.65,5.4-5.77,12.31-1.02,6.24,2.54,9.42,.03,14.14Z"/>
  <ellipse class="cls-2" cx="551.5" cy="1020.5" rx="80" ry="26"/>
  <ellipse class="cls-2" cx="1139.74" cy="1025.28" rx="99.76" ry="16.16"/>
  <g>
    <path class="cls-23" d="M546.5,984.5c4.68-.05,.81,.51,32,6,5.85,1.03,9.92,1.7,12,5,3.36,5.32-.27,14.59-5,20-13.97,15.96-45.11,6.88-48,6-11.85-3.61-31.06-13.05-30-22,1.11-9.41,24.2-14.83,39-15Z"/>
    <polygon class="cls-12" points="506.5 1000.5 505.5 1030.5 565.5 1034.5 618.5 1020.5 618.5 992.5 565.5 1007.5 506.5 1000.5"/>
    <polygon class="cls-19" points="472.5 976.5 520.5 961.5 555.5 964.5 506.5 977.5 472.5 976.5"/>
    <polygon class="cls-19" points="569.34 983.86 617.34 968.86 652.34 971.86 603.34 984.86 569.34 983.86"/>
    <path class="cls-12" d="M471.5,998.5c11.33,.33,22.67,.67,34,1,.33-7.33,.67-14.67,1-22-12-.33-24-.67-36-1,.33,7.33,.67,14.67,1,22Z"/>
    <path class="cls-16" d="M557.5,964.5c.33,7.67,.67,15.33,1,23-17.67,4-35.33,8-53,12,.33-7,.67-14,1-21,17-4.67,34-9.33,51-14Z"/>
    <path class="cls-12" d="M567.5,984.5v20c11.33,.67,22.67,1.33,34,2l1-21c-11.67-.33-23.33-.67-35-1Z"/>
    <path class="cls-16" d="M653.5,972.5v20c-17,4.67-34,9.33-51,14l1-21c16.67-4.33,33.33-8.67,50-13Z"/>
    <path class="cls-17" d="M578.5,961.5c6.01,4.68,8.2,6.78,9,10,.1,.42,.66,2.66,0,3-.99,.52-3.72-3.77-10-11-4-4.6-6.25-6.72-6-7,.24-.27,2.49,1.49,7,5Z"/>
    <path class="cls-4" d="M590.5,970.5c-2.33,1.67-4.67,3.33-7,5,1.67,1.67,3.33,3.33,5,5,4,.33,8,.67,12,1-3.33-3.67-6.67-7.33-10-11Z"/>
    <path class="cls-17" d="M537.5,950.5c.22,.73-3.46,1.41-4,4-.44,2.08,1.25,4.83,3,5,2.62,.25,4.27-5.44,6-5,1.22,.31,2.13,3.59,1,6-1.21,2.58-3.98,2.52-9,5-4.72,2.33-4.27,3.37-9,6-5.59,3.12-12.38,5.13-13,4-.7-1.26,6-7,10-10,3.34-2.51,5.29-3.48,6-6,.88-3.12-1.34-4.96,0-7,2.17-3.29,8.72-2.95,9-2Z"/>
    <path class="cls-17" d="M608.33,968.86c.29,.71,3.73-1.24,5.82,.4,1.67,1.31,2.03,4.58,.7,5.89-2,1.96-6.96-1.34-8.1,.17-.8,1.06,.53,4.21,2.98,5.31,2.63,1.19,4.87-.73,10.56-2.19,5.35-1.37,5.64-.27,11.2-1.41,6.57-1.35,13.42-4.36,13.22-5.65-.23-1.44-9.37-1.37-14.55-1.01-4.34,.31-6.55,.86-8.73-.6-2.71-1.82-2.04-4.74-4.44-5.42-3.86-1.08-9.03,3.59-8.66,4.51Z"/>
    <line class="cls-20" x1="565.5" y1="1008" x2="565.5" y2="1034"/>
  </g>
  <path class="cls-11" d="M633.94,957.73c3.46,1.51,6.91,3.01,10.37,4.52-.74,4.26-1.39,10.72-.3,18.38,.76,5.31,3.62,23.38,19.65,36.33,1.2,.97,19.31,15.13,43.02,11.03,22.46-3.89,40.99-22.63,46.9-47.44-39.44-9.21-78.87-18.43-118.31-27.64-.44,1.61-.89,3.21-1.33,4.82Z"/>
  <g>
    <path class="cls-5" d="M1126.51,822.44c.36,7.27,4.1,13.97,6,21,6.71,24.84,10.59,24.18,10,33-.73,11.02-6.69,10.7-10,24-4.95,19.89,4.25,37.23,2,38-1.29,.44-4.98-5-7-11-5.71-16.96,3.03-35.06,4-37,1.09-2.19,2.82-5.22,4-10,.51-2.04,1.49-6.74,1-13-.64-8.18-3.03-9.21-8-24-4.56-13.55-2.58-12.77-6-20-1.93-4.08-4.49-8.41-3-10,.83-.88,2.73-.73,4,0,2.88,1.66,2.87,6.46,3,9Z"/>
    <path class="cls-13" d="M1179.81,773.76c-20.73,7.65-29.62,17.54-33.89,25.29-3.94,7.15-3.09,10.94-8.29,15.78-8.2,7.62-16.45,3.95-32.98,10.2-4.69,1.77-13.78,5.21-21.76,12.73-12.8,12.07-9.68,22.32-20.28,31.9-4.87,4.4-13.43,9.38-29.29,9.86,3.79-1.44,15.26-6.32,20.83-17.65,2.92-5.93,2.96-11.07,3.01-18.15,.05-6.16,.13-17.11-6.24-27.31-3.09-4.94-5.1-5.56-4.76-8.14,.69-5.25,9.53-6.69,26.11-15.28,12.56-6.51,18.85-9.77,23.87-15.79,6.02-7.22,7.27-13.73,11.33-13.92,2.97-.14,4.06,3.26,9.25,9.15,5.47,6.22,10.75,12.22,17.57,13.39,6.95,1.19,10.31-3.52,22.69-7.82,9.39-3.26,17.56-4.06,22.83-4.25Z"/>
    <path class="cls-6" d="M1046.18,828.29c.06-1.31,7.91-1.56,15.44-3.57,13.03-3.48,22.61-11.57,29.01-16.98,6.47-5.47,5.86-6.37,11.47-10.35,6.46-4.59,8.33-4.14,17.41-10.19,5-3.33,5.88-4.43,8.7-5.09,6.63-1.57,14.26,1.52,14.26,4.4,0,1.97-3.58,2.76-13.06,7.64l-21.76,12.73-13.06,7.64-21.76,12.73c-10.04,6.69-16.58,12.67-18.86,11.04-1.34-.96,.23-3.54-1.72-6.27-2.15-3-6.12-2.79-6.08-3.73Z"/>
  </g>
  <path class="cls-17" d="M765.74,1026.02c1.07-5.23,20.1-7.44,30.42-7.8,5.69-.2,9.43,.14,10.62-2.04,1.74-3.19-3.32-9.36-8.1-14.26,4.19-2.21,8.38-4.43,12.56-6.64,.93,4.64,2.47,10.22,5.09,16.25,3.97,9.15,8.97,16,13,20.67-4.54,1.34-9.09,2.68-13.63,4.02-.91-11.53-3.92-14.8-6.4-15.72-3.09-1.14-5.57,1.26-17.03,6.93-13.3,6.58-16.88,6.77-19.79,5.77-3.54-1.22-7.27-4.63-6.74-7.18Z"/>
  <path class="cls-10" d="M802.43,1017.39l3.05,7.92c-4.13,1.6-32.87,12.61-37.67,8.43-1.62-1.41-1.93-3.05-1.93-3.05-.52-2.76,1.84-5.31,2.84-6.4,6-6.48,31.68-6.89,33.71-6.91Z"/>
  <path class="cls-7" d="M1163.51,852.44c4.83-.29,11.4-3.05,19-14,.75,2.33,1.46,5.01,2,8,.67,3.72,.94,7.1,1,10-2.67,1.45-8.69,4.19-16,3-7.12-1.16-13.46-5.73-13-7,.31-.85,3.5,.21,7,0Z"/>
  <path class="cls-5" d="M1088.51,907.44c4.82,36.82,5.79,48.87,5,49-1.53,.24-8.41-44.39-13-44-4.85,.42-3.47,50.92-6,51-1.34,.05-3.07-14.14-5-37"/>
  <path class="cls-5" d="M1161.51,895.44c-6.81,1.99-11.75,6.77-13,8-14.34,14.13-21.27,26.31-25,25-2.26-.79-2.63-6.29-2-10,1.7-10,14.5-15.21,28-21,2.37-1.02,4.7-2.01,8-3,9.47-2.85,22.59-4.43,24-1,.41,.99-.15,2.45-1,3-1.06,.69-2.33-.2-5-1,0,0-3.7-1.1-8-1-2.75,.07-4.82,.65-6,1Z"/>
  <path class="cls-5" d="M1179.51,928.44c-2.07,2.44-6.82,7.49-21,14-14.79,6.79-19.14,5.67-21,5-2.19-.79-5.19-2.51-5-4,.31-2.41,8.78-2.5,16-4,7.12-1.48,16.97-5.13,28-15h6c-.65,.98-1.65,2.4-3,4Z"/>
  <path class="cls-5" d="M1106.8,873.93c10.02-1.93,13.26,11.61,18.19,32.24,2.29,9.57,7.94,21.56,7.7,29.05-.01,.41-.14,3.71-.18,8.22-.03,2.95-.02,5.37,0,7-.08,1.75-.3,4.58-1,8-.98,4.78-2.07,6.67-3,11-1.17,5.46-.33,6.6-1,10-2.06,10.38-13.22,16.33-14.34,16.91-8.54,4.41-16.8,3.07-22.52,2.19-4.41-.68-7.75-1.93-10.07-2.79-21.08-7.85-21.94-28.95-22.32-38.36-.25-6.23-.55-17.27,6.31-33.03,8.79-20.2,29.24-47.94,42.23-50.44Z"/>
  <path class="cls-5" d="M1123.51,895.44c1.28-1.82,1.06-4.21,.77-7.32-.51-5.49-3.11-9.27-4.77-11.68-1.26-1.83-3.63-5.2-8-8-4.26-2.73-8.18-3.49-11-4-7.59-1.38-13.67-.1-16.11,.43-1.21,.27-24.02,8.33-34.6,28.4-2.95,5.59-1.59,12.33,1.26,25.59,4.08,18.99,6.87,18.42,7.66,18.12,3.4-1.28,2.7-9.98,13.02-21.38,4.62-5.1,13.86-16.38,27.21-19,12.23-2.4,21.19,3.63,24.56-1.15Z"/>
  <path class="cls-27" d="M494.5,1028.5c27.5-89.04,55.17-178.04,83-267,16.28-52.02,32.61-104.02,49-156-31.33,.67-62.67,1.33-94,2-14.71,43.23-30.03,86.91-46,131-35.94,99.25-73.08,194.93-111,287"/>
  <rect class="cls-32" x="468" y="712" width="160" height="12"/>
  <rect class="cls-31" x="579" y="712" width="49" height="12"/>
  <rect class="cls-32" x="443" y="781" width="160" height="12"/>
  <rect class="cls-31" x="554" y="781" width="49" height="12"/>
  <rect class="cls-32" x="410" y="847" width="160" height="12"/>
  <rect class="cls-31" x="521" y="847" width="49" height="12"/>
  <rect class="cls-32" x="385" y="916" width="160" height="12"/>
  <rect class="cls-31" x="496" y="916" width="49" height="12"/>
  <rect class="cls-32" x="362" y="981" width="160" height="12"/>
  <rect class="cls-31" x="473" y="981" width="49" height="12"/>
  <image width="3000" height="3329" transform="translate(1059.81 914.54) rotate(-9.72) scale(.02)" xlink:href="../../../../../Downloads/280285143_329237449372826_7855519780452690543_n.png"/>
  <path class="cls-30" d="M956.5,376.5c4.05-3.11,12.76-8.86,25-10,22.91-2.14,38.72,13.65,41,16-9.95,1.13-22.57,1.64-37,0-11.21-1.28-20.97-3.56-29-6Z"/>
  <line class="cls-26" x1="485" y1="387" x2="818" y2="381"/>
  <line class="cls-26" x1="818.17" y1="405.1" x2="485.12" y2="402.61"/>
  <line class="cls-26" x1="486.15" y1="417.86" x2="819.15" y2="425.15"/>
</svg>